<svg width="578" height="694" viewBox="0 0 578 694" fill="none" xmlns="http://www.w3.org/2000/svg">
<rect x="258" y="291" width="25" height="44" fill="#C0B163"/>
<rect x="323" y="288" width="26" height="44" fill="#C0B163"/>
<ellipse cx="303" cy="386" rx="44" ry="93" fill="#A7E1D3"/>
<g clip-path="url(#clip0_1_99)">
<rect x="216" y="131" width="175" height="175" rx="87.5" fill="#DFB997"/>
<ellipse cx="220" cy="130.5" rx="83" ry="61.5" fill="#C0B163"/>
<ellipse cx="386" cy="131.5" rx="83" ry="61.5" fill="#C0B163"/>
<circle cx="273" cy="203" r="10" fill="black"/>
<circle cx="333" cy="203" r="10" fill="black"/>
<path d="M285 263L289.933 271.125L297.333 276H307.2L315.833 271.125L322 263" stroke="black"/>
</g>
<ellipse cx="269.034" cy="138.759" rx="10" ry="5.5" transform="rotate(-14.0189 269.034 138.759)" fill="#ADFAFF"/>
<ellipse cx="326.807" cy="136.43" rx="10" ry="6.39348" transform="rotate(26.7337 326.807 136.43)" fill="#ADFAFF"/>
<circle cx="376" cy="123" r="50" fill="#ADFAFF"/>
<circle cx="221" cy="123" r="50" fill="#ADFAFF"/>
<circle cx="296" cy="92" r="50" fill="#ADFAFF"/>
<path d="M296 67L301.613 84.2746H319.776L305.082 94.9508L310.695 112.225L296 101.549L281.305 112.225L286.918 94.9508L272.224 84.2746H290.387L296 67Z" fill="#D9D9D9"/>
<g clip-path="url(#clip1_1_99)">
<rect width="15" height="171" transform="translate(296 306)" fill="#4AE1E1"/>
<rect width="15" height="171" transform="translate(296 306)" fill="#4AE1E1"/>
<rect width="3" height="171" transform="translate(302 306)" fill="#255D9D"/>
<circle cx="303.5" cy="307.5" r="0.5" fill="#D9D9D9"/>
<circle cx="303.5" cy="310.5" r="0.5" fill="#D9D9D9"/>
<circle cx="303.5" cy="313.5" r="0.5" fill="#D9D9D9"/>
<circle cx="303.5" cy="316.5" r="0.5" fill="#D9D9D9"/>
<circle cx="303.5" cy="319.5" r="0.5" fill="#D9D9D9"/>
<circle cx="303.5" cy="322.5" r="0.5" fill="#D9D9D9"/>
<circle cx="303.5" cy="325.5" r="0.5" fill="#D9D9D9"/>
<circle cx="303.5" cy="328.5" r="0.5" fill="#D9D9D9"/>
<circle cx="303.5" cy="331.5" r="0.5" fill="#D9D9D9"/>
<circle cx="303.5" cy="334.5" r="0.5" fill="#D9D9D9"/>
<circle cx="303.5" cy="337.5" r="0.5" fill="#D9D9D9"/>
<circle cx="303.5" cy="340.5" r="0.5" fill="#D9D9D9"/>
<circle cx="303.5" cy="343.5" r="0.5" fill="#D9D9D9"/>
<circle cx="303.5" cy="346.5" r="0.5" fill="#D9D9D9"/>
<circle cx="303.5" cy="349.5" r="0.5" fill="#D9D9D9"/>
<circle cx="303.5" cy="352.5" r="0.5" fill="#D9D9D9"/>
<circle cx="303.5" cy="355.5" r="0.5" fill="#D9D9D9"/>
<circle cx="303.5" cy="358.5" r="0.5" fill="#D9D9D9"/>
<circle cx="303.5" cy="361.5" r="0.5" fill="#D9D9D9"/>
<circle cx="303.5" cy="364.5" r="0.5" fill="#D9D9D9"/>
<circle cx="303.5" cy="367.5" r="0.5" fill="#D9D9D9"/>
<circle cx="303.5" cy="370.5" r="0.5" fill="#D9D9D9"/>
<circle cx="303.5" cy="373.5" r="0.5" fill="#D9D9D9"/>
<circle cx="303.5" cy="376.5" r="0.5" fill="#D9D9D9"/>
<circle cx="303.5" cy="379.5" r="0.5" fill="#D9D9D9"/>
<circle cx="303.5" cy="382.5" r="0.5" fill="#D9D9D9"/>
<circle cx="303.5" cy="385.5" r="0.5" fill="#D9D9D9"/>
<circle cx="303.5" cy="388.5" r="0.5" fill="#D9D9D9"/>
<circle cx="303.5" cy="391.5" r="0.5" fill="#D9D9D9"/>
<circle cx="303.5" cy="394.5" r="0.5" fill="#D9D9D9"/>
<circle cx="303.5" cy="397.5" r="0.5" fill="#D9D9D9"/>
<circle cx="303.5" cy="400.5" r="0.5" fill="#D9D9D9"/>
<circle cx="303.5" cy="403.5" r="0.5" fill="#D9D9D9"/>
<circle cx="303.5" cy="406.5" r="0.5" fill="#D9D9D9"/>
<circle cx="303.5" cy="409.5" r="0.5" fill="#D9D9D9"/>
<circle cx="303.5" cy="412.5" r="0.5" fill="#D9D9D9"/>
<circle cx="303.5" cy="415.5" r="0.5" fill="#D9D9D9"/>
<circle cx="303.5" cy="418.5" r="0.5" fill="#D9D9D9"/>
<circle cx="303.5" cy="421.5" r="0.5" fill="#D9D9D9"/>
<circle cx="303.5" cy="424.5" r="0.5" fill="#D9D9D9"/>
<circle cx="303.5" cy="427.5" r="0.5" fill="#D9D9D9"/>
<circle cx="303.5" cy="430.5" r="0.5" fill="#D9D9D9"/>
<circle cx="303.5" cy="433.5" r="0.5" fill="#D9D9D9"/>
<circle cx="303.5" cy="436.5" r="0.5" fill="#D9D9D9"/>
<circle cx="303.5" cy="439.5" r="0.5" fill="#D9D9D9"/>
<circle cx="303.5" cy="442.5" r="0.5" fill="#D9D9D9"/>
<circle cx="303.5" cy="445.5" r="0.5" fill="#D9D9D9"/>
<circle cx="303.5" cy="448.5" r="0.5" fill="#D9D9D9"/>
<circle cx="303.5" cy="451.5" r="0.5" fill="#D9D9D9"/>
<circle cx="303.5" cy="454.5" r="0.5" fill="#D9D9D9"/>
<circle cx="303.5" cy="457.5" r="0.5" fill="#D9D9D9"/>
<circle cx="303.5" cy="460.5" r="0.5" fill="#D9D9D9"/>
<circle cx="303.5" cy="463.5" r="0.5" fill="#D9D9D9"/>
<circle cx="303.5" cy="466.5" r="0.5" fill="#D9D9D9"/>
<circle cx="303.5" cy="469.5" r="0.5" fill="#D9D9D9"/>
<circle cx="303.5" cy="472.5" r="0.5" fill="#D9D9D9"/>
<circle cx="303.5" cy="475.5" r="0.5" fill="#D9D9D9"/>
</g>
<ellipse cx="244.289" cy="351.577" rx="42.8797" ry="16" transform="rotate(-36.983 244.289 351.577)" fill="#A7E1D3"/>
<rect x="253" y="452" width="100" height="136" rx="38" fill="#A7E1D3"/>
<ellipse cx="247.007" cy="413.822" rx="61.1635" ry="16" transform="rotate(-126.161 247.007 413.822)" fill="#7BC1B1"/>
<ellipse rx="42.8797" ry="16" transform="matrix(-0.798814 -0.601578 -0.601578 0.798814 362.878 351.577)" fill="#A7E1D3"/>
<ellipse rx="61.1635" ry="16" transform="matrix(0.590052 -0.807365 -0.807365 -0.590052 360.007 408.822)" fill="#7BC1B1"/>
<rect width="13.9047" height="21.8015" rx="6.95237" transform="matrix(-0.665932 0.746012 0.746012 0.665932 283.26 453)" fill="#DFB997"/>
<rect x="322.264" y="452" width="13.9047" height="21.8015" rx="6.95237" transform="rotate(48.2461 322.264 452)" fill="#DFB997"/>
<ellipse cx="279.062" cy="457.904" rx="14.0466" ry="6.5" transform="rotate(-49.5271 279.062 457.904)" fill="#D9D9D9"/>
<ellipse rx="14.0466" ry="6.5" transform="matrix(-0.649089 -0.760713 -0.760713 0.649089 325.062 455.904)" fill="#D9D9D9"/>
<defs>
<clipPath id="clip0_1_99">
<rect x="216" y="131" width="175" height="175" rx="87.5" fill="white"/>
</clipPath>
<clipPath id="clip1_1_99">
<rect width="15" height="171" fill="white" transform="translate(296 306)"/>
</clipPath>
</defs>
</svg>
