<svg width="106" height="207" viewBox="0 0 106 207" fill="none" xmlns="http://www.w3.org/2000/svg">
<path d="M95.5115 95C101.034 95 105.512 90.5228 105.512 85C105.512 79.4772 101.034 75 95.5115 75C89.9887 75 85.5115 79.4772 85.5115 85C85.5115 90.5228 89.9887 95 95.5115 95Z" fill="#60A00F"/>
<path d="M63.3683 20C68.8911 20 73.3683 15.5228 73.3683 10C73.3683 4.47715 68.8911 0 63.3683 0C57.8455 0 53.3683 4.47715 53.3683 10C53.3683 15.5228 57.8455 20 63.3683 20Z" fill="#1C2BB0"/>
<path d="M17.5115 95C23.5866 95 28.5115 90.5228 28.5115 85C28.5115 79.4772 23.5866 75 17.5115 75C11.4364 75 6.51151 79.4772 6.51151 85C6.51151 90.5228 11.4364 95 17.5115 95Z" fill="#B83333"/>
<path d="M81.5115 130C87.0344 130 91.5115 125.523 91.5115 120C91.5115 114.477 87.0344 110 81.5115 110C75.9887 110 71.5115 114.477 71.5115 120C71.5115 125.523 75.9887 130 81.5115 130Z" fill="#00FFFF"/>
<path d="M23.5115 149C29.0344 149 33.5115 144.523 33.5115 139C33.5115 133.477 29.0344 129 23.5115 129C17.9887 129 13.5115 133.477 13.5115 139C13.5115 144.523 17.9887 149 23.5115 149Z" fill="#530F5F"/>
<path d="M63.5115 89C69.0344 89 73.5115 84.5228 73.5115 79C73.5115 73.4772 69.0344 69 63.5115 69C57.9887 69 53.5115 73.4772 53.5115 79C53.5115 84.5228 57.9887 89 63.5115 89Z" fill="#BF4E62"/>
<path d="M55.5115 139C61.0344 139 65.5115 134.523 65.5115 129C65.5115 123.477 61.0344 119 55.5115 119C49.9887 119 45.5115 123.477 45.5115 129C45.5115 134.523 49.9887 139 55.5115 139Z" fill="#D9D9D9"/>
<path d="M10.5115 192C16.0344 192 20.5115 187.523 20.5115 182C20.5115 176.477 16.0344 172 10.5115 172C4.98866 172 0.511505 176.477 0.511505 182C0.511505 187.523 4.98866 192 10.5115 192Z" fill="#E89595"/>
<path d="M93.5115 187C99.0344 187 103.512 182.523 103.512 177C103.512 171.477 99.0344 167 93.5115 167C87.9887 167 83.5115 171.477 83.5115 177C83.5115 182.523 87.9887 187 93.5115 187Z" fill="#806F6F"/>
<path d="M51.5115 207C57.0344 207 61.5115 202.523 61.5115 197C61.5115 191.477 57.0344 187 51.5115 187C45.9887 187 41.5115 191.477 41.5115 197C41.5115 202.523 45.9887 207 51.5115 207Z" fill="#EDFF7C"/>
</svg>
