<svg width="276" height="326" viewBox="0 0 276 326" fill="none" xmlns="http://www.w3.org/2000/svg">
<mask id="mask0_2_32" style="mask-type:alpha" maskUnits="userSpaceOnUse" x="95" y="0" width="87" height="90">
<path d="M138.5 0L181.368 89.2895H95.6317L138.5 0Z" fill="#D9D9D9"/>
</mask>
<g mask="url(#mask0_2_32)">
<path d="M139 8.14035L182.301 84.4561H95.6987L139 8.14035Z" fill="#2E8C0C"/>
<circle cx="148" cy="60" r="10" fill="#1C2BB0"/>
</g>
<path d="M139.5 69.193L212.679 143.982H66.3209L139.5 69.193Z" fill="#2E8C0C"/>
<path d="M139.5 129.228L227.402 196.386H51.5984L139.5 129.228Z" fill="#2E8C0C"/>
<path d="M138 174L257.512 261H18.4885L138 174Z" fill="#2E8C0C"/>
<rect x="122" y="254" width="32" height="72" fill="#2E8C0C"/>
<circle cx="178" cy="129" r="10" fill="#60A00F"/>
<ellipse cx="100" cy="129" rx="11" ry="10" fill="#B83333"/>
<circle cx="164" cy="164" r="10" fill="#00FFFF"/>
<circle cx="101" cy="184" r="10" fill="#530F5F"/>
<rect x="119" y="261" width="35" height="65" fill="#634040"/>
<circle cx="146" cy="123" r="10" fill="#BF4E62"/>
<circle cx="138" cy="173" r="10" fill="#D9D9D9"/>
<circle cx="93" cy="226" r="10" fill="#E89595"/>
<circle cx="134" cy="241" r="10" fill="#EDFF7C"/>
<circle cx="176" cy="221" r="10" fill="#806F6F"/>
</svg>
