<svg width="276" height="343" viewBox="0 0 276 343" fill="none" xmlns="http://www.w3.org/2000/svg">
<mask id="mask0_2_4" style="mask-type:alpha" maskUnits="userSpaceOnUse" x="75" y="0" width="86" height="90">
<path d="M117.868 0L160.736 89.2895H75L117.868 0Z" fill="#D9D9D9"/>
</mask>
<g mask="url(#mask0_2_4)">
<path d="M118.368 8.14035L161.669 84.4561H75.067L118.368 8.14035Z" fill="#2E8C0C"/>
</g>
<path d="M121.011 75.193L194.19 149.982H47.8324L121.011 75.193Z" fill="#2E8C0C"/>
<path d="M121.011 135.228L208.913 202.386H33.1099L121.011 135.228Z" fill="#2E8C0C"/>
<path d="M119.511 180L239.023 267H0L119.511 180Z" fill="#2E8C0C"/>
<path d="M135.512 260H103.512V332H135.512V260Z" fill="#2E8C0C"/>
<path d="M135.512 267H100.512V332H135.512V267Z" fill="#634040"/>
<path d="M159.512 145C165.034 145 169.512 140.523 169.512 135C169.512 129.477 165.034 125 159.512 125C153.989 125 149.512 129.477 149.512 135C149.512 140.523 153.989 145 159.512 145Z" fill="#60A00F"/>
<path d="M127.368 70C132.891 70 137.368 65.5228 137.368 60C137.368 54.4772 132.891 50 127.368 50C121.845 50 117.368 54.4772 117.368 60C117.368 65.5228 121.845 70 127.368 70Z" fill="#1C2BB0"/>
<path d="M81.5115 145C87.5866 145 92.5115 140.523 92.5115 135C92.5115 129.477 87.5866 125 81.5115 125C75.4364 125 70.5115 129.477 70.5115 135C70.5115 140.523 75.4364 145 81.5115 145Z" fill="#B83333"/>
<path d="M145.512 180C151.034 180 155.512 175.523 155.512 170C155.512 164.477 151.034 160 145.512 160C139.989 160 135.512 164.477 135.512 170C135.512 175.523 139.989 180 145.512 180Z" fill="#00FFFF"/>
<path d="M87.5115 199C93.0344 199 97.5115 194.523 97.5115 189C97.5115 183.477 93.0344 179 87.5115 179C81.9887 179 77.5115 183.477 77.5115 189C77.5115 194.523 81.9887 199 87.5115 199Z" fill="#530F5F"/>
<path d="M127.512 139C133.034 139 137.512 134.523 137.512 129C137.512 123.477 133.034 119 127.512 119C121.989 119 117.512 123.477 117.512 129C117.512 134.523 121.989 139 127.512 139Z" fill="#BF4E62"/>
<path d="M119.512 189C125.034 189 129.512 184.523 129.512 179C129.512 173.477 125.034 169 119.512 169C113.989 169 109.512 173.477 109.512 179C109.512 184.523 113.989 189 119.512 189Z" fill="#D9D9D9"/>
<path d="M74.5115 242C80.0344 242 84.5115 237.523 84.5115 232C84.5115 226.477 80.0344 222 74.5115 222C68.9887 222 64.5115 226.477 64.5115 232C64.5115 237.523 68.9887 242 74.5115 242Z" fill="#E89595"/>
<path d="M157.512 237C163.034 237 167.512 232.523 167.512 227C167.512 221.477 163.034 217 157.512 217C151.989 217 147.512 221.477 147.512 227C147.512 232.523 151.989 237 157.512 237Z" fill="#806F6F"/>
<path d="M115.512 257C121.034 257 125.512 252.523 125.512 247C125.512 241.477 121.034 237 115.512 237C109.989 237 105.512 241.477 105.512 247C105.512 252.523 109.989 257 115.512 257Z" fill="#EDFF7C"/>
</svg>
