<svg width="400" height="274" viewBox="0 0 400 274" fill="none" xmlns="http://www.w3.org/2000/svg">
<path d="M328.391 158.151C343.162 188.5 342.812 184.537 337.5 188.5C332.188 192.463 309.474 175.162 299.84 162.248C285.5 146.5 302.207 134.262 307.519 130.3C312.831 126.337 313.619 127.802 328.391 158.151Z" fill="url(#paint0_linear_1_2)" style="mix-blend-mode:darken"/>
<path d="M315.5 122C318.088 142.548 303.548 151.412 283 154C262 150.5 240.231 150.59 237.643 130.042C235.055 109.494 249.616 90.7382 270.164 88.1506C290.712 85.563 312.912 101.452 315.5 122Z" fill="url(#paint1_linear_1_2)" style="mix-blend-mode:darken"/>
<path d="M168.729 127.479C171.013 132.114 270.396 134.013 148.36 149.381C129.455 151.761 103.516 159.951 101.232 155.315C98.9482 150.68 120.479 140.82 136.174 133.087C151.87 125.355 166.445 122.844 168.729 127.479Z" fill="url(#paint2_linear_1_2)" style="mix-blend-mode:darken"/>
<path d="M300.697 110.511C303.457 132.429 351 171 210.297 145.083C150.017 133.98 120.522 149.743 105.5 134.5C117 114 122.5 99 134.5 94C159.5 77 206.087 82.5 208 82.5C286.409 82.5 297.937 88.5927 300.697 110.511Z" fill="url(#paint3_angular_1_2)" style="mix-blend-mode:darken"/>
<circle cx="308.252" cy="98.4727" r="15" transform="rotate(-7.17734 308.252 98.4727)" fill="url(#paint4_linear_1_2)" style="mix-blend-mode:darken"/>
<path d="M138.765 105.201C140.938 122.462 128.708 138.217 111.447 140.39C89.8584 133.03 66.3607 154.531 64.1871 137.27C62.0135 120.01 86.3152 80.0574 103.576 77.8838C115.585 75.5781 125.347 69.6077 134.079 67.9951C207.441 54.4488 208.492 58.6246 150.961 81.9957C145.616 86.9031 140.886 99.2937 138.765 105.201Z" fill="url(#paint5_angular_1_2)" style="mix-blend-mode:darken"/>
<defs>
<linearGradient id="paint0_linear_1_2" x1="320.865" y1="163.34" x2="337.504" y2="187.068" gradientUnits="userSpaceOnUse">
<stop stop-color="#24282D"/>
<stop offset="1" stop-color="#3A74A9"/>
</linearGradient>
<linearGradient id="paint1_linear_1_2" x1="338" y1="107" x2="285" y2="46" gradientUnits="userSpaceOnUse">
<stop stop-color="#24282D"/>
<stop offset="1" stop-color="#3A74A9"/>
</linearGradient>
<linearGradient id="paint2_linear_1_2" x1="124" y1="128" x2="66.5" y2="184" gradientUnits="userSpaceOnUse">
<stop stop-color="#24282D"/>
<stop offset="1" stop-color="#3A74A9"/>
</linearGradient>
<radialGradient id="paint3_angular_1_2" cx="0" cy="0" r="1" gradientUnits="userSpaceOnUse" gradientTransform="translate(234 71) rotate(-123.977) scale(55.4707 98.5365)">
<stop offset="0.0473511" stop-color="#3A74A9"/>
<stop offset="0.464136" stop-color="#2E4A64"/>
<stop offset="0.564637" stop-color="#24282D"/>
<stop offset="0.808564" stop-color="#24282D"/>
</radialGradient>
<linearGradient id="paint4_linear_1_2" x1="314.275" y1="84.6441" x2="280.788" y2="82.4429" gradientUnits="userSpaceOnUse">
<stop stop-color="#24282D"/>
<stop offset="1" stop-color="#3A74A9"/>
</linearGradient>
<radialGradient id="paint5_angular_1_2" cx="0" cy="0" r="1" gradientUnits="userSpaceOnUse" gradientTransform="translate(128 98) rotate(83.0667) scale(39.9903 77.1382)">
<stop stop-color="#24282D"/>
<stop offset="1" stop-color="#3A74A9"/>
</radialGradient>
</defs>
</svg>
