<svg width="2553" height="2358" viewBox="0 0 2553 2358" fill="none" xmlns="http://www.w3.org/2000/svg">
<ellipse cx="1206" cy="595" rx="217" ry="197" fill="white"/>
<ellipse cx="1206" cy="978" rx="318" ry="287" fill="white"/>
<ellipse cx="1206.5" cy="1501" rx="431.5" ry="391" fill="white"/>
<rect x="1116" y="206" width="180" height="222" fill="#545454"/>
<ellipse cx="1206" cy="992" rx="32" ry="29" fill="#1E1E1E"/>
<ellipse cx="1206" cy="839" rx="32" ry="29" fill="#1E1E1E"/>
<path d="M1147 595C1147 611.016 1132.67 624 1115 624C1097.33 624 1083 611.016 1083 595C1083 578.984 1097.33 566 1115 566C1132.67 566 1147 578.984 1147 595Z" fill="black"/>
<ellipse cx="1296" cy="595" rx="32" ry="29" fill="black"/>
<ellipse cx="1206" cy="1326" rx="41" ry="38" fill="#1E1E1E"/>
<ellipse cx="1206" cy="1538" rx="59" ry="55" fill="#1E1E1E"/>
<ellipse cx="1206" cy="1140" rx="32" ry="29" fill="#1E1E1E"/>
<ellipse cx="1106" cy="595.5" rx="9" ry="7.5" fill="#545454"/>
<ellipse cx="1274" cy="664.5" rx="9" ry="7.5" fill="#545454"/>
<ellipse cx="1264" cy="683.5" rx="9" ry="7.5" fill="#545454"/>
<ellipse cx="1247" cy="698.5" rx="9" ry="7.5" fill="#545454"/>
<ellipse cx="1215" cy="698.5" rx="9" ry="7.5" fill="#545454"/>
<ellipse cx="1183" cy="698.5" rx="9" ry="7.5" fill="#545454"/>
<ellipse cx="1156" cy="698.5" rx="9" ry="7.5" fill="#545454"/>
<ellipse cx="1125" cy="683.5" rx="9" ry="7.5" fill="#545454"/>
<ellipse cx="1106" cy="664.5" rx="9" ry="7.5" fill="#545454"/>
<ellipse cx="1305" cy="595.5" rx="9" ry="7.5" fill="#545454"/>
<ellipse cx="1287" cy="595.5" rx="9" ry="7.5" fill="#545454"/>
<ellipse cx="1125" cy="595.5" rx="9" ry="7.5" fill="#545454"/>
<path d="M1292.21 643.872L1172.91 645.726L1182.45 597.094L1292.21 643.872Z" fill="#F85D2C"/>
<rect x="1474.4" y="963.616" width="339.933" height="17.0586" transform="rotate(-17.5087 1474.4 963.616)" fill="#7C3400"/>
<rect x="1708.1" y="1867.23" width="1075.2" height="26.0871" transform="rotate(-90.0588 1708.1 1867.23)" fill="#7C3400"/>
<rect x="688.12" y="847.74" width="339.933" height="17.0586" transform="rotate(22.5122 688.12 847.74)" fill="#7C3400"/>
<rect x="1749" y="810" width="10" height="67" fill="#692C00"/>
<rect x="726.893" y="877" width="10" height="67" transform="rotate(72.4829 726.893 877)" fill="#692C00"/>
<rect x="730" y="810" width="10" height="67" fill="#692C00"/>
<rect x="1727.69" y="899.173" width="10" height="67" transform="rotate(-42.4871 1727.69 899.173)" fill="#692C00"/>
<rect x="1031" y="728" width="338" height="64" fill="#525252"/>
<rect x="1001.74" y="706" width="84" height="49" transform="rotate(31.6929 1001.74 706)" fill="#4E4E4E"/>
<rect x="1343" y="750.398" width="84" height="49" transform="rotate(-31.9078 1343 750.398)" fill="#545353"/>
<rect x="1631" y="588" width="180" height="207" fill="#424242"/>
</svg>
